<?xml version="1.0" encoding="UTF-8"?>
<svg width="129px" height="42px" viewBox="0 0 129 42" version="1.1" xmlns="http://www.w3.org/2000/svg" xmlns:xlink="http://www.w3.org/1999/xlink">
    <title>cory-logo-new</title>
    <g id="cory-logo-new" stroke="none" stroke-width="1" fill="none" fill-rule="evenodd">
        <path d="M109.7805,22.5412 L98.4685,4.3302 L104.1955,4.3302 L111.2355,15.7352 C111.3765,15.9712 111.8925,16.8622 112.6435,18.4112 C113.0665,17.3312 113.5355,16.3942 114.0515,15.5962 L121.2805,4.3302 L126.7245,4.3302 L115.1785,22.5412 L115.1785,37.8432 L109.7805,37.8432 L109.7805,22.5412 Z" id="Fill-19" fill="#FEFEFE"></path>
        <path d="M20.2429,33.7424 C13.2809,33.7424 7.6379,28.0984 7.6379,21.1364 C7.6379,14.1744 13.2809,8.5304 20.2429,8.5304 C24.3959,8.5304 28.0799,10.5394 30.3759,13.6384 L33.4259,9.5404 C33.1639,9.2504 32.8919,8.9664 32.6079,8.6894 C29.2329,5.4084 24.5929,3.5334 19.9059,3.5334 C15.2179,3.5334 10.6249,5.4084 7.2499,8.6894 C3.8279,12.0174 1.9999,16.3294 1.9999,21.1104 C1.9999,26.5004 4.2969,31.2814 8.5149,34.6564 C11.7499,37.2344 15.8269,38.6874 19.9059,38.6874 C24.5929,38.6874 29.1859,36.8594 32.6079,33.5314 C32.8909,33.2554 33.1639,32.9704 33.4259,32.6794 L30.3959,28.6084 C28.0999,31.7224 24.4079,33.7424 20.2429,33.7424" id="Fill-20" fill="#FEFEFE"></path>
        <path d="M80.0275,19.0051 L80.0275,9.7281 L88.3145,9.7281 C90.8835,9.7281 92.9655,11.8101 92.9655,14.3781 C92.9655,16.7851 91.1365,18.7661 88.7935,19.0051 L80.0275,19.0051 Z M98.5285,37.8431 L90.6165,24.1371 C95.0435,23.0971 98.3395,19.1221 98.3395,14.3781 C98.3395,8.8421 93.8505,4.3541 88.3145,4.3541 L80.0275,4.3541 L74.6305,4.3541 L74.6305,9.7281 L74.6305,37.8431 L80.0275,37.8431 L80.0275,24.4011 L83.7215,24.4011 L84.5365,24.4011 L92.2955,37.8431 L98.5285,37.8431 Z" id="Fill-21" fill="#FEFEFE"></path>
        <path d="M56.9811,32.8439 C60.1071,31.2519 62.7661,28.9069 64.7531,25.9719 C66.1681,23.8829 67.1841,21.5889 67.7751,19.1539 C68.3911,16.6119 68.5161,13.9449 68.1511,11.3469 C70.6101,15.1649 71.5341,19.6789 70.7581,24.1969 C70.5801,25.2339 70.3031,26.2759 69.9351,27.2949 C69.8771,27.3499 69.8171,27.4059 69.7571,27.4599 L69.6331,27.5729 C67.3981,29.6489 64.6741,31.1979 61.7571,32.0549 C60.1981,32.5129 58.5991,32.7769 56.9811,32.8439" id="Fill-22" fill="#00A7DF"></path>
        <path d="M55.6799,38.8479 C52.7649,37.9489 50.0609,36.3649 47.8599,34.2669 C46.6829,33.1449 45.6549,31.8909 44.7859,30.5209 C47.1479,32.0509 49.8039,33.0939 52.5779,33.5719 C53.2529,33.6879 53.9419,33.7709 54.6269,33.8199 C57.1429,33.9999 59.6379,33.7339 62.0419,33.0279 C64.5549,32.2889 66.9299,31.0629 68.9989,29.4439 C66.4219,34.4529 61.6819,37.9729 56.0799,38.9719 C55.9989,38.9479 55.6799,38.8479 55.6799,38.8479" id="Fill-23" fill="#C6D300"></path>
        <path d="M49.8239,38.9904 C45.6099,38.2664 41.7819,36.0684 39.0299,32.7964 C39.0109,32.7164 38.9929,32.6364 38.9749,32.5564 L38.9399,32.4004 C38.2609,29.4274 38.2809,26.2924 38.9969,23.3374 C39.3799,21.7604 39.9509,20.2424 40.7019,18.8074 C40.5179,22.3104 41.2189,25.7854 42.7669,28.9744 C43.8689,31.2434 45.3479,33.2714 47.1619,35.0004 C49.0569,36.8064 51.3059,38.2504 53.7419,39.2324 C52.4309,39.2944 51.1179,39.2134 49.8239,38.9904" id="Fill-24" fill="#FEFEFE"></path>
        <path d="M37.6359,30.9055 C35.1779,27.0875 34.2529,22.5735 35.0299,18.0555 C35.2079,17.0165 35.4849,15.9755 35.8519,14.9585 C35.9139,14.8995 35.9759,14.8435 36.0389,14.7855 L36.1529,14.6785 C38.3889,12.6035 41.1129,11.0535 44.0309,10.1975 C45.5889,9.7395 47.1879,9.4755 48.8059,9.4085 C45.6799,11.0015 43.0219,13.3445 41.0339,16.2805 C39.6199,18.3705 38.6029,20.6645 38.0129,23.0985 C37.3969,25.6395 37.2709,28.3065 37.6359,30.9055" id="Fill-25" fill="#00A7DF"></path>
        <path d="M36.7873,12.8088 C39.3643,7.7988 44.1043,4.2808 49.7063,3.2808 C49.7893,3.3058 49.8723,3.3308 49.9553,3.3578 L50.1063,3.4058 C53.0213,4.3038 55.7253,5.8878 57.9263,7.9858 C59.1033,9.1078 60.1323,10.3628 61.0003,11.7318 C58.6383,10.2018 55.9823,9.1588 53.2073,8.6818 C52.5333,8.5658 51.8443,8.4818 51.1603,8.4328 C48.6433,8.2528 46.1483,8.5188 43.7443,9.2258 C41.2313,9.9638 38.8563,11.1898 36.7873,12.8088" id="Fill-26" fill="#C6D300"></path>
        <path d="M65.0847,23.4455 C65.2687,19.9415 64.5677,16.4675 63.0197,13.2785 C61.9177,11.0085 60.4387,8.9815 58.6257,7.2525 C56.7307,5.4455 54.4807,4.0025 52.0447,3.0195 C53.3557,2.9585 54.6687,3.0395 55.9627,3.2615 C60.1767,3.9865 64.0047,6.1835 66.7567,9.4555 C66.7757,9.5355 66.8467,9.8525 66.8467,9.8525 C67.5257,12.8265 67.5057,15.9595 66.7897,18.9145 C66.4077,20.4935 65.8357,22.0095 65.0847,23.4455" id="Fill-27" fill="#FEFEFE"></path>
    </g>
</svg>